<svg xmlns="http://www.w3.org/2000/svg" width="28.005" height="28.003" viewBox="0 0 28.005 28.003"><defs><style>.a{fill:#fff;}</style></defs><path class="a" d="M3.114,16.43a.6.6,0,0,0-1.014.3L.4,24.4a.6.6,0,0,0,.161.557.613.613,0,0,0,.557.163l7.67-1.7a.6.6,0,0,0,.3-1.015Z" transform="translate(-0.382 2.874)"/><path class="a" d="M20.115,7.223,6.907,20.431a.3.3,0,0,0,0,.427l2.131,2.131a.611.611,0,0,0,.852,0L22.673,10.206a.6.6,0,0,0,0-.852L20.542,7.223a.3.3,0,0,0-.427,0Z" transform="translate(0.939 1.004)"/><path class="a" d="M19.506,6.187,17.375,4.057a.6.6,0,0,0-.852,0L3.74,16.839a.6.6,0,0,0,0,.852l2.131,2.131a.3.3,0,0,0,.427,0L19.506,6.613a.3.3,0,0,0,0-.427Z" transform="translate(0.271 0.336)"/><path class="a" d="M23.785,1.792a4.827,4.827,0,0,0-6.819,0l-.852.852a.6.6,0,0,0,0,.852L22.08,9.46a.618.618,0,0,0,.852,0l.853-.852a4.821,4.821,0,0,0,0-6.816Z" transform="translate(2.809 -0.382)"/></svg>