<svg xmlns="http://www.w3.org/2000/svg" width="20" height="28.5" viewBox="0 0 20 28.5"><defs><style>.a{fill:#9b9b9b;fill-rule:evenodd;}</style></defs><g transform="translate(-375 -780)"><g transform="translate(113 201)"><g transform="translate(0 562)"><g transform="translate(181)"><g transform="translate(81 17)"><path class="a" d="M10,18a5.862,5.862,0,0,0,6-5.7V5.7A5.862,5.862,0,0,0,10,0,5.862,5.862,0,0,0,4,5.7v6.6A5.862,5.862,0,0,0,10,18"/><path class="a" d="M18.923,9.5a1.048,1.048,0,0,0-1.077,1.017V12.7a7.68,7.68,0,0,1-7.824,7.483,7.648,7.648,0,0,1-7.868-7.412V10.517A1.048,1.048,0,0,0,1.077,9.5,1.048,1.048,0,0,0,0,10.517V12.69a9.78,9.78,0,0,0,8.923,9.472v4.3H5.59a1.019,1.019,0,1,0,0,2.035H14.41a1.019,1.019,0,1,0,0-2.035H11.077v-4.3A9.676,9.676,0,0,0,20,12.772V10.517A1.048,1.048,0,0,0,18.923,9.5"/></g></g></g></g></g></svg>